- 
http://www.Speed.Cd      fast  and The Hottest Private Tracker on the net

   signup is open now

Please Seed back to make the speed Faster!!!

------------------nfo--------------------------
-[img]http://img28.imageshack.us/img28/945/intime.jpg[/img]
[code]
Imdb:http://www.imdb.com/title/tt1637688/

Plot:
In a future where people stop aging at 25, but are engineered to live only one more year, having the means to buy your way out of the situation is a shot at immortal youth. Here, Will Salas finds himself accused of murder and on the run with a hostage - a connection that becomes an important part of the way against the system.

Source:
FYA THNXS BUD!

Notes:
Video is very good added a few gilters to video t make it look good :p so enjoy
Encoded by Memory100

Greetz:
Goes out to the people next door you know what i mean haha :D and to to the other groups out there love ya work itz great :D


Format                                   : AVI
Format/Info                              : Audio Video Interleave
File size                                : 1.31 GiB
Duration                                 : 1h 41mn
Overall bit rate                         : 1 838 Kbps

Video
ID                                       : 0
Format                                   : MPEG-4 Visual
Format profile                           : Advanced Simple@L5
Format settings, BVOP                    : 2
Format settings, QPel                    : No
Format settings, GMC                     : No warppoints
Format settings, Matrix                  : Default (H.263)
Codec ID                                 : XVID
Codec ID/Hint                            : XviD
Duration                                 : 1h 41mn
Bit rate                                 : 1 700 Kbps
Width                                    : 720 pixels
Height                                   : 304 pixels
Display aspect ratio                     : 2.35:1
Frame rate                               : 25.000 fps
Color space                              : YUV
Chroma subsampling                       : 4:2:0
Bit depth                                : 8 bits
Scan type                                : Progressive
Compression mode                         : Lossy
Bits/(Pixel*Frame)                       : 0.311
Stream size                              : 1.21 GiB (93%)
Writing library                          : XviD 63

Audio
ID                                       : 1
Format                                   : MPEG Audio
Format version                           : Version 1
Format profile                           : Layer 3
Mode                                     : Joint stereo
Mode extension                           : MS Stereo
Codec ID                                 : 55
Codec ID/Hint                            : MP3
Duration                                 : 1h 41mn
Bit rate mode                            : Constant
Bit rate                                 : 128 Kbps
Channel(s)                               : 2 channels
Sampling rate                            : 44.1 KHz
Compression mode                         : Lossy
Stream size                              : 93.2 MiB (7%)
Alignment                                : Aligned on interleaves
Interleave, duration                     : 40 ms (1.00 video frame)

[/code]
Screens:
[img]http://img683.imageshack.us/img683/4293/vlcsnap2011112810h30m23.png[/img]
[img]http://img12.imageshack.us/img12/4663/vlcsnap2011112810h30m41.png[/img]
[img]http://img15.imageshack.us/img15/711/vlcsnap2011112810h30m59.png[/img]
[img]http://img62.imageshack.us/img62/4207/vlcsnap2011112810h31m05.png[/img]
[img]http://img822.imageshack.us/img822/7340/vlcsnap2011112810h31m16.png[/img]
[img]http://img607.imageshack.us/img607/9540/vlcsnap2011112810h31m22.png[/img]
[img]http://img32.imageshack.us/img32/1144/vlcsnap2011112810h31m28.png[/img]
[img]http://img266.imageshack.us/img266/4450/vlcsnap2011112810h31m42.png[/img]
[img]http://img507.imageshack.us/img507/2967/vlcsnap2011112810h31m56.png[/img]